<?xml version="1.0"?>
<svg xmlns="http://www.w3.org/2000/svg" xmlns:xlink="http://www.w3.org/1999/xlink" xmlns:svgjs="http://svgjs.com/svgjs" version="1.1" width="512" height="512" x="0" y="0" viewBox="0 0 512.001 512.001" style="enable-background:new 0 0 512 512" xml:space="preserve" class=""><g>
<g xmlns="http://www.w3.org/2000/svg">
	<g>
		<path d="M452.534,173.14c0-8.363-6.78-15.144-15.143-15.144H74.611c-8.363,0-15.144,6.78-15.144,15.144    c0,77.199,44.748,144.133,109.662,176.257l-27.685,144.609c-1.573,8.214,3.811,16.148,12.026,17.721    c0.962,0.185,1.919,0.274,2.864,0.274c7.12,0,13.468-5.047,14.857-12.3l13-67.906h143.611l13.008,67.908    c1.389,7.252,7.735,12.298,14.856,12.298c0.945,0,1.904-0.089,2.866-0.274c8.214-1.574,13.597-9.507,12.024-17.722l-27.7-144.599    C407.779,317.283,452.534,250.345,452.534,173.14z M189.99,401.508l7.781-40.641c18.407,5.721,37.965,8.806,58.23,8.806    c20.26,0,39.812-3.083,58.216-8.802l7.785,40.637H189.99z M256,339.387c-86.565,0-157.89-66.502-165.562-151.103h331.124    C413.89,272.884,342.566,339.387,256,339.387z" fill="#0a3280" data-original="#000000" style=""/>
	</g>
</g>
<g xmlns="http://www.w3.org/2000/svg">
	<g>
		<path d="M197.865,78.198c3.552-3.652,12.138-13.667,15.168-27.755c2.503-11.635,1.863-29.077-15.394-46.085    c-5.955-5.871-15.543-5.803-21.415,0.154c-5.871,5.955-5.802,15.544,0.154,21.415c8.096,7.981,7.898,14.179,7.045,18.149    c-1.453,6.758-6.311,12.02-7.27,13.006c-3.552,3.652-12.138,13.667-15.168,27.755c-2.503,11.635-1.863,29.077,15.394,46.085    c2.95,2.908,6.791,4.358,10.63,4.358c3.912,0,7.822-1.506,10.785-4.513c5.871-5.955,5.802-15.544-0.154-21.415    c-8.096-7.981-7.898-14.179-7.045-18.149C192.048,84.447,196.906,79.185,197.865,78.198z" fill="#0a3280" data-original="#000000" style=""/>
	</g>
</g>
<g xmlns="http://www.w3.org/2000/svg">
	<g>
		<path d="M266.856,78.198c3.552-3.652,12.138-13.667,15.168-27.755c2.503-11.635,1.863-29.077-15.394-46.085    c-5.955-5.871-15.544-5.803-21.415,0.154c-5.871,5.955-5.802,15.544,0.154,21.415c8.096,7.981,7.898,14.179,7.045,18.149    c-1.453,6.758-6.311,12.02-7.27,13.006c-3.552,3.652-12.138,13.667-15.168,27.755c-2.503,11.635-1.863,29.077,15.394,46.085    c2.949,2.908,6.79,4.358,10.63,4.358c3.911,0,7.822-1.506,10.785-4.513c5.871-5.955,5.802-15.544-0.154-21.415    c-8.096-7.981-7.898-14.179-7.045-18.149C261.039,84.447,265.897,79.185,266.856,78.198z" fill="#0a3280" data-original="#000000" style=""/>
	</g>
</g>
<g xmlns="http://www.w3.org/2000/svg">
	<g>
		<path d="M335.846,78.198c3.552-3.652,12.138-13.667,15.168-27.755c2.503-11.635,1.863-29.077-15.394-46.085    c-5.955-5.871-15.543-5.803-21.415,0.154c-5.871,5.955-5.802,15.544,0.154,21.415c8.096,7.981,7.898,14.179,7.045,18.149    c-1.453,6.758-6.311,12.02-7.27,13.006c-3.552,3.652-12.138,13.667-15.168,27.755c-2.503,11.635-1.863,29.077,15.394,46.085    c2.95,2.908,6.79,4.358,10.63,4.358c3.912,0,7.822-1.506,10.785-4.513c5.871-5.955,5.802-15.544-0.154-21.415    c-8.096-7.981-7.898-14.179-7.045-18.149C330.029,84.447,334.887,79.185,335.846,78.198z" fill="#0a3280" data-original="#000000" style=""/>
	</g>
</g>
<g xmlns="http://www.w3.org/2000/svg">
</g>
<g xmlns="http://www.w3.org/2000/svg">
</g>
<g xmlns="http://www.w3.org/2000/svg">
</g>
<g xmlns="http://www.w3.org/2000/svg">
</g>
<g xmlns="http://www.w3.org/2000/svg">
</g>
<g xmlns="http://www.w3.org/2000/svg">
</g>
<g xmlns="http://www.w3.org/2000/svg">
</g>
<g xmlns="http://www.w3.org/2000/svg">
</g>
<g xmlns="http://www.w3.org/2000/svg">
</g>
<g xmlns="http://www.w3.org/2000/svg">
</g>
<g xmlns="http://www.w3.org/2000/svg">
</g>
<g xmlns="http://www.w3.org/2000/svg">
</g>
<g xmlns="http://www.w3.org/2000/svg">
</g>
<g xmlns="http://www.w3.org/2000/svg">
</g>
<g xmlns="http://www.w3.org/2000/svg">
</g>
</g></svg>
