<?xml version="1.0"?>
<svg xmlns="http://www.w3.org/2000/svg" xmlns:xlink="http://www.w3.org/1999/xlink" xmlns:svgjs="http://svgjs.com/svgjs" version="1.1" width="512" height="512" x="0" y="0" viewBox="0 0 512 512" style="enable-background:new 0 0 512 512" xml:space="preserve" class=""><g><path xmlns="http://www.w3.org/2000/svg" d="M488,296H385.13c-4.711-1.46-28.214-9.8-41.13-33.977V175.545A72.1,72.1,0,0,0,408,104c0-25.011-23.414-95.54-24.411-98.53A8,8,0,0,0,376,0H296a8,8,0,0,0-7.589,5.47C287.414,8.46,264,78.989,264,104a72.1,72.1,0,0,0,64,71.545v86.478c-12.929,24.2-36.468,32.535-41.126,33.977H225.13c-4.711-1.46-28.214-9.8-41.13-33.977V175.545A72.1,72.1,0,0,0,248,104c0-25.011-23.414-95.54-24.411-98.53A8,8,0,0,0,216,0H136a8,8,0,0,0-7.589,5.47C127.414,8.46,104,78.989,104,104a72.1,72.1,0,0,0,64,71.545v86.478c-12.929,24.2-36.468,32.535-41.126,33.977H24a8,8,0,0,0,0,16H40v24a8,8,0,0,0,8,8H84.012a30.207,30.207,0,0,0-3.162,5,8,8,0,0,0,4.186,11.02c.1.039,3.524,1.422,9.378,4.153-14.028,2.3-23.767,7.436-29.07,15.389a8,8,0,0,0,3.685,11.866c1.1.44,109.73,44.022,160.107,75.118a264.438,264.438,0,0,1,27.826,41.259A8,8,0,0,0,264,512h96a8,8,0,0,0,5.646-2.332C366.722,508.6,392,483.106,392,456.186c0-3.1-.124-6.694-.267-10.856-.911-26.538-2.573-75.6,27.965-101.33H464a8,8,0,0,0,8-8V312h16a8,8,0,0,0,0-16ZM301.8,16h68.41c4.562,14.1,11.741,37.631,16.6,57.652L373.032,80.54a24.048,24.048,0,0,1-24.046-1.5L328.749,65.552a39.935,39.935,0,0,0-33.174-5.181l-7.55,2.157C292.563,45.432,298.058,27.551,301.8,16ZM280,104c0-5.381,1.424-13.82,3.606-23.57l16.364-4.674a23.959,23.959,0,0,1,19.9,3.108l20.237,13.491a40.082,40.082,0,0,0,40.077,2.5l10.127-5.064A85.141,85.141,0,0,1,392,104a56,56,0,0,1-112,0Zm56,175.368A85.441,85.441,0,0,0,351.953,296H320.047A85.441,85.441,0,0,0,336,279.368ZM141.795,16h68.41c4.562,14.1,11.741,37.631,16.6,57.652L213.032,80.54a24.049,24.049,0,0,1-24.046-1.5L168.749,65.552a39.935,39.935,0,0,0-33.174-5.181l-7.55,2.157C132.563,45.432,138.058,27.551,141.795,16ZM120,104c0-5.381,1.424-13.82,3.606-23.57l16.364-4.674a23.959,23.959,0,0,1,19.9,3.108l20.237,13.491a40.082,40.082,0,0,0,40.077,2.5l10.127-5.064A85.141,85.141,0,0,1,232,104a56,56,0,0,1-112,0Zm56,175.368A85.441,85.441,0,0,0,191.953,296H160.047A85.441,85.441,0,0,0,176,279.368ZM88.327,382.024c7.986-2.756,19.931-3.8,34.773-2.948,8.457,4.82,17.869,10.556,27.764,17.229a397.612,397.612,0,0,1,41.684,32.279q-23.854-11.769-55.132-25.593C117.62,394.244,99.812,386.769,88.327,382.024Zm287.416,63.855c.138,4.016.257,7.482.257,10.307,0,16.352-13.993,33.656-19.482,39.814h-87.8c-29.8-52.753-75.632-90.563-109.251-113.191a436.507,436.507,0,0,0-58.142-33.091c7.735-4.822,18.55-5.067,18.675-5.068,16.337,0,24.23,4.051,62.162,23.519,12.087,6.2,27.128,13.922,46.272,23.457,40.949,20.4,66.787,27.14,86.392,22.542,20.482-4.8,32.057-21.641,44.027-41.514,11.282-18.731,26.4-25.48,38.027-27.7C373.353,376.241,374.869,420.439,375.743,445.879Zm-30.6-81.481C324.33,398.962,313.88,416.309,235.566,377.3c-19.056-9.492-34.05-17.187-46.1-23.37-7.46-3.83-13.865-7.116-19.5-9.934h192.4A79.772,79.772,0,0,0,345.147,364.4ZM456,328H56V312H456Z" fill="#0a3280" data-original="#000000" style="" class=""/></g></svg>
